<?xml version="1.0" encoding="UTF-8" standalone="no"?>
<svg
   width="338.84"
   height="338.85"
   viewBox="0 0 89.652 89.654"
   version="1.1"
   id="svg6"
   sodipodi:docname="go-icon.svg"
   inkscape:version="1.2.2 (b0a8486541, 2022-12-01)"
   xmlns:inkscape="http://www.inkscape.org/namespaces/inkscape"
   xmlns:sodipodi="http://sodipodi.sourceforge.net/DTD/sodipodi-0.dtd"
   xmlns="http://www.w3.org/2000/svg"
   xmlns:svg="http://www.w3.org/2000/svg">
  <defs
     id="defs10" />
  <sodipodi:namedview
     id="namedview8"
     pagecolor="#ffffff"
     bordercolor="#666666"
     borderopacity="1.0"
     inkscape:showpageshadow="2"
     inkscape:pageopacity="0.0"
     inkscape:pagecheckerboard="0"
     inkscape:deskcolor="#d1d1d1"
     showgrid="false"
     inkscape:zoom="0.69647335"
     inkscape:cx="168.7071"
     inkscape:cy="169.425"
     inkscape:window-width="1920"
     inkscape:window-height="1011"
     inkscape:window-x="0"
     inkscape:window-y="0"
     inkscape:window-maximized="1"
     inkscape:current-layer="svg6" />
  <path
     fill="#f4a100"
     d="M50.284 18.637a5.14 5.14 0 0 0-5.136-5.135 5.14 5.14 0 0 0-5.135 5.135 5.14 5.14 0 0 0 5.135 5.138 5.146 5.146 0 0 0 5.136-5.138M28.416 63.032a5.143 5.143 0 0 0-5.138 5.138 5.14 5.14 0 0 0 5.138 5.133 5.14 5.14 0 0 0 5.136-5.133 5.143 5.143 0 0 0-5.136-5.138m16.735-28.975a7.02 7.02 0 0 0-7.02 7.025 7.02 7.02 0 0 0 14.04 0 7.02 7.02 0 0 0-7.02-7.025m16.732 28.975a5.143 5.143 0 0 0-5.135 5.138 5.14 5.14 0 0 0 5.135 5.133 5.14 5.14 0 0 0 5.136-5.133 5.143 5.143 0 0 0-5.136-5.138"
     class="st1"
     id="path2" />
  <g
     inkscape:groupmode="layer"
     id="layer1" />
  <path
     fill="#f4a100"
     d="M61.883 75.769c-4.19 0-7.601-3.41-7.601-7.602 0-2.32 1.05-4.4 2.696-5.794L49.726 50.26a10.2 10.2 0 0 1-4.575 1.085c-1.648 0-3.196-.397-4.577-1.085l-7.252 12.113a7.57 7.57 0 0 1 2.693 5.794c0 4.191-3.408 7.602-7.599 7.602-4.19 0-7.601-3.41-7.601-7.602 0-4.19 3.41-7.601 7.601-7.601.984 0 1.926.196 2.791.54l7.303-12.2a10.24 10.24 0 0 1-3.63-7.827c0-5.254 3.947-9.58 9.038-10.189v-4.762c-3.606-.59-6.368-3.72-6.368-7.49 0-4.192 3.41-7.602 7.601-7.602s7.599 3.41 7.599 7.601c0 3.77-2.762 6.9-6.366 7.49v4.763c5.093.611 9.038 4.935 9.038 10.19a10.23 10.23 0 0 1-3.633 7.826l7.306 12.2a7.5 7.5 0 0 1 2.791-.54c4.191 0 7.599 3.41 7.599 7.601s-3.41 7.602-7.602 7.602m-49.286-34.65c0-5.485 3.44-10.057 9.194-10.057 4.194 0 7.715 2.236 8.226 6.562h-3.281c-.32-2.524-2.524-3.818-4.945-3.818-4.117 0-5.834 3.627-5.834 7.313s1.717 7.313 5.834 7.313c3.44.056 5.32-2.016 5.376-5.268h-5.106v-2.556h8.173v10.11h-2.151l-.51-2.257c-1.803 2.043-3.44 2.715-5.78 2.715-5.754 0-9.196-4.57-9.196-10.057M44.826 0C20.07 0 0 20.069 0 44.828c0 24.755 20.071 44.826 44.826 44.826 24.757 0 44.826-20.071 44.826-44.826C89.652 20.068 69.582 0 44.826 0"
     class="st1"
     id="path4" />
</svg>
